<svg xmlns="http://www.w3.org/2000/svg" viewBox="0 0 73.97 26.86"><defs><style>.cls-1,.cls-3{fill:#fff;}.cls-2{fill:#006194;}.cls-3{font-size:3px;font-family:Muli-Bold, Muli;font-weight:700;letter-spacing:0.01em;}.cls-4{letter-spacing:0.02em;}.cls-5{letter-spacing:0em;}.cls-6{letter-spacing:-0.07em;}.cls-7{letter-spacing:0.01em;}</style></defs><g id="Calque_2" data-name="Calque 2"><g id="Calque_1-2" data-name="Calque 1"><path class="cls-1" d="M5.16,16.17a4.47,4.47,0,0,1-3.94-1.94A7.55,7.55,0,0,1,0,9.79,7.36,7.36,0,0,1,1.22,5.41,4.55,4.55,0,0,1,5.16,3.47,4.41,4.41,0,0,1,9,5.27,6.88,6.88,0,0,1,10.26,9.5v.43H.79v.22a6.22,6.22,0,0,0,1.07,3.72,3.85,3.85,0,0,0,3.3,1.73,4,4,0,0,0,4-2.8l.57.36a3.84,3.84,0,0,1-1.5,2A4.87,4.87,0,0,1,5.16,16.17Zm4.31-7a6,6,0,0,0-1-3.51A3.53,3.53,0,0,0,5.31,4.12,3.91,3.91,0,0,0,2,5.63,6.61,6.61,0,0,0,.79,9.21Z"/><path class="cls-2" d="M50.13,16.17a4.47,4.47,0,0,1-3.94-1.94A7.55,7.55,0,0,1,45,9.79a7.36,7.36,0,0,1,1.22-4.38,4.55,4.55,0,0,1,3.94-1.94A4.43,4.43,0,0,1,54,5.27,6.94,6.94,0,0,1,55.22,9.5v.43H45.76v.22a6.22,6.22,0,0,0,1.07,3.72,3.85,3.85,0,0,0,3.3,1.73,4,4,0,0,0,4-2.8l.57.36a3.89,3.89,0,0,1-1.5,2A4.87,4.87,0,0,1,50.13,16.17Zm4.31-7a6,6,0,0,0-1-3.51,3.54,3.54,0,0,0-3.15-1.58A3.91,3.91,0,0,0,47,5.63a6.61,6.61,0,0,0-1.22,3.58Z"/><path class="cls-2" d="M18.5,25.93h-.64V17.65a4,4,0,0,1-4.11,2.63,4.42,4.42,0,0,1-3.65-1.66,6.38,6.38,0,0,1-1.16-4,6.38,6.38,0,0,1,1.16-4A4.33,4.33,0,0,1,13.75,9a4,4,0,0,1,4.11,2.75V9.25h.64ZM17.86,14.7a6,6,0,0,0-1-3.52,3.54,3.54,0,0,0-3.15-1.54,3.71,3.71,0,0,0-3.2,1.54,5.87,5.87,0,0,0-1,3.52,5.9,5.9,0,0,0,1,3.53,3.71,3.71,0,0,0,3.2,1.54,3.62,3.62,0,0,0,3.15-1.54A5.9,5.9,0,0,0,17.86,14.7Z"/><rect class="cls-2" x="17.86" y="9.25" width="0.64" height="16.8"/><path class="cls-2" d="M26.78,15.77h-.72v-2A4.12,4.12,0,0,1,22,16c-2.73,0-4.16-1.44-4.16-4.31v-8h.71v7.75a4.25,4.25,0,0,0,.72,2.8,3.17,3.17,0,0,0,2.65,1.07c2.3,0,3.59-1,4-3.08,0-.22.07-.51.07-.86V3.72h.72v12Z"/><path class="cls-1" d="M66.29,16h-.72V14a4.12,4.12,0,0,1-4.08,2.23c-2.73,0-4.16-1.44-4.16-4.31v-8H58v7.75a4.25,4.25,0,0,0,.72,2.8,3.18,3.18,0,0,0,2.65,1.07c2.3,0,3.59-1,4-3.08,0-.22.07-.5.07-.86V3.91h.72V16Z"/><path class="cls-1" d="M33.89,16.17A5,5,0,0,1,29.8,14.3a7.11,7.11,0,0,1-1.22-4.45A7.55,7.55,0,0,1,29.8,5.41a4.85,4.85,0,0,1,4.09-1.87,4.46,4.46,0,0,1,4.52,3V3.76h.71V15.81h-.71V13.23A4.35,4.35,0,0,1,33.89,16.17ZM30.37,13.8a4,4,0,0,0,3.52,1.72A3.94,3.94,0,0,0,37.4,13.8a6.6,6.6,0,0,0,1.08-4A6.71,6.71,0,0,0,37.4,5.91a3.94,3.94,0,0,0-3.51-1.72,4,4,0,0,0-3.52,1.72A6.61,6.61,0,0,0,29.3,9.85,6.5,6.5,0,0,0,30.37,13.8Z"/><path class="cls-1" d="M68.86,4h.71V6c.65-1.29,1.94-2,4-1.94l-.5.65a4.36,4.36,0,0,0-1.22.14A3.82,3.82,0,0,0,70.22,6a3.07,3.07,0,0,0-.65,2v8.1h-.71Z"/><path class="cls-1" d="M45.23.78V0h-6V.78h2.55V15.84h.72V.78Z"/><rect class="cls-1" x="2.22" y="0.02" width="6.03" height="0.73"/><text class="cls-3" transform="translate(20.76 26.04)">P<tspan class="cls-4" x="2.04" y="0">O</tspan><tspan class="cls-5" x="4.45" y="0">R</tspan><tspan class="cls-6" x="6.55" y="0">T</tspan><tspan class="cls-4" x="8.19" y="0">AIL DE SE</tspan><tspan class="cls-7" x="22.86" y="0">R</tspan><tspan class="cls-4" x="24.99" y="0">VIC</tspan><tspan class="cls-7" x="30.21" y="0">E</tspan><tspan class="cls-4" x="32.01" y="0">S MARKETING</tspan></text></g></g></svg>